# xmcd
#
# Track frame offsets:
#	150
#	11968
#	23114
#	32352
#
# Disc length: 564 seconds
#
# Revision: 0
# Processed by: cddbd v1.5.2PL0 Copyright (c) Steve Scherf et al.
# Submitted via: EZCDAudioConverter 2.0.5.1
#
DISCID=24023204
DTITLE=The Ventures - French Sixties EP Collection - CD 3 - Telstar
DYEAR=2005
DGENRE=Instrumental
TTITLE0=Telstar
TTITLE1=Last Night
TTITLE2=Green Onions
TTITLE3=Red River Rock
EXTD=
EXTT0=
EXTT1=
EXTT2=
EXTT3=
PLAYORDER=
